<?xml version="1.0" encoding="UTF-8" standalone="no"?><!DOCTYPE svg PUBLIC "-//W3C//DTD SVG 1.1//EN" "http://www.w3.org/Graphics/SVG/1.1/DTD/svg11.dtd"><svg width="100%" height="100%" viewBox="0 0 2134 2134" version="1.1" xmlns="http://www.w3.org/2000/svg" xmlns:xlink="http://www.w3.org/1999/xlink" xml:space="preserve" xmlns:serif="http://www.serif.com/" style="fill-rule:evenodd;clip-rule:evenodd;stroke-linejoin:round;stroke-miterlimit:2;"><g><g id="Final"><path d="M866.057,240.829c52.769,-80.629 123.244,-129.9 200.61,-129.9c77.366,0 147.84,49.271 200.61,129.9c26.985,18.356 53.286,44.501 76.371,81.416c20.466,32.727 34.356,102.798 14.454,192.523c3.028,28.096 4.61,57.047 4.61,86.606c0,72.137 -9.421,140.658 -26.334,202.359c23.246,24.345 36.438,52.183 36.438,81.746c0,0.877 -0.012,1.753 -0.036,2.615c2.296,-0.345 4.617,-0.702 6.977,-1.071c37.433,-5.857 78.982,-25.536 125.875,-57.25c125.815,-85.09 74.13,-353.24 93.146,-434.433c22.967,-98.061 87.671,-172.024 197.81,-226.115c11.337,-5.568 23.373,-8.128 35.192,-7.985c29.088,-0.352 57.188,15.694 70.862,43.542c18.954,38.59 3.033,85.232 -35.557,104.19c-137.702,67.623 -131.271,145.687 -105.174,301.841c12.204,73.007 15.116,219.768 8.882,236.79c-44.82,150.271 -136.768,251.332 -286.859,296.675c90.586,59.262 182.987,76.611 275.392,51.545c17.919,-4.86 97.888,-26.792 119.116,-92.071c20.941,-64.393 -10.522,-188.919 -15.231,-219.302c-13.757,-88.781 -29.521,-132.243 57.032,-218.968c28.211,-28.266 72.232,-32.544 102.079,-6.016c29.85,26.529 37.695,77.764 6.016,102.079c-95.229,73.092 62.055,309.014 -6.872,471.351c-51.648,121.648 -182.564,236.245 -367.005,234.728c-105.987,2.816 -200.315,-26.863 -268.688,-57.791c24.764,89.774 295.3,90.39 456.418,154.05c42.935,-131.464 151.624,-204.546 177.021,-212.724c28.157,-9.065 70.495,-29.872 99.727,13.607c43.04,64.017 -23.115,88.059 -33.963,94.663c-23.043,14.031 -81.026,42.001 -123.688,167.972c58.285,37.949 90.478,54.554 107.8,118.056c11.444,41.954 6.051,97.304 -0.334,123.083c-15.51,62.622 -72.896,51.864 -101.927,35.758c-10.832,-6.01 -24.478,-18.568 -28.817,-41.291c-9.016,-47.213 -8.043,-75.282 -29.775,-98.473c-43.822,88.492 -65.543,156.959 -192.891,218.07c-127.907,61.381 -251.677,54.74 -424.244,-40.785c-127.08,-70.345 -180.812,-179.828 -224.433,-296.285l-16.956,43.281c-41.245,99.935 -96.282,191.452 -207.478,253.004c-172.567,95.525 -296.336,102.166 -424.244,40.785c-127.347,-61.111 -149.068,-129.578 -192.891,-218.07c-21.732,23.191 -20.759,51.26 -29.775,98.473c-4.339,22.723 -17.984,35.281 -28.817,41.291c-29.03,16.106 -86.417,26.864 -101.927,-35.758c-6.384,-25.779 -11.778,-81.129 -0.334,-123.083c17.322,-63.502 49.516,-80.107 107.801,-118.056c-42.663,-125.971 -100.646,-153.941 -123.689,-167.972c-10.848,-6.604 -77.003,-30.646 -33.963,-94.663c29.232,-43.479 71.57,-22.672 99.727,-13.607c25.397,8.178 134.087,81.26 177.021,212.724c161.118,-63.66 431.654,-64.276 456.419,-154.05c-68.374,30.928 -162.702,60.607 -268.689,57.791c-184.441,1.517 -315.356,-113.08 -367.005,-234.728c-68.927,-162.337 88.357,-398.259 -6.872,-471.351c-31.679,-24.315 -23.834,-75.55 6.017,-102.079c29.846,-26.528 73.868,-22.25 102.078,6.016c86.554,86.725 70.79,130.187 57.032,218.968c-4.708,30.383 -36.171,154.909 -15.231,219.302c21.229,65.279 101.198,87.211 119.116,92.071c92.405,25.066 184.806,7.717 275.392,-51.545c-150.09,-45.343 -242.039,-146.404 -286.858,-296.675c-6.234,-17.022 -3.323,-163.783 8.881,-236.79c26.097,-156.154 32.528,-234.218 -105.174,-301.841c-38.59,-18.958 -54.51,-65.6 -35.557,-104.19c13.675,-27.848 41.774,-43.894 70.862,-43.542c11.819,-0.143 23.856,2.417 35.192,7.985c110.14,54.091 174.843,128.054 197.81,226.115c19.017,81.193 -32.669,349.343 93.147,434.433c46.893,31.714 88.441,51.393 125.874,57.25c2.361,0.369 4.682,0.726 6.977,1.071c-0.024,-0.862 -0.035,-1.738 -0.035,-2.615c0,-29.563 13.191,-57.401 36.438,-81.746c-16.913,-61.701 -26.335,-130.222 -26.335,-202.359c0,-29.559 1.582,-58.51 4.61,-86.606c-19.902,-89.725 -6.011,-159.796 14.454,-192.523c23.087,-36.917 49.389,-63.063 76.372,-81.416Zm730.794,1566.81c74.796,-18.065 129.113,-56.098 168.445,-101.71c-91.885,-2.769 -252.097,69.664 -402.584,-32.34c53.584,70.184 158.811,152.245 234.139,134.05Zm-1060.37,0c-74.797,-18.065 -129.114,-56.098 -168.446,-101.71c91.886,-2.769 252.097,69.664 402.584,-32.34c-53.584,70.184 -158.81,152.245 -234.138,134.05Zm384.552,-984.99c48.666,0 88.176,28.154 88.176,62.833c0,34.679 -39.51,62.833 -88.176,62.833c-48.666,0 -88.177,-28.154 -88.177,-62.833c0,-34.679 39.511,-62.833 88.177,-62.833Zm288.45,0c48.666,0 88.177,28.154 88.177,62.833c0,34.679 -39.511,62.833 -88.177,62.833c-48.666,0 -88.176,-28.154 -88.176,-62.833c0,-34.679 39.51,-62.833 88.176,-62.833Z" style="fill:#77aadd;"/></g></g></svg>