<?xml version="1.0" encoding="UTF-8" standalone="no"?><!DOCTYPE svg PUBLIC "-//W3C//DTD SVG 1.1//EN" "http://www.w3.org/Graphics/SVG/1.1/DTD/svg11.dtd"><svg width="100%" height="100%" viewBox="0 0 2134 2134" version="1.1" xmlns="http://www.w3.org/2000/svg" xmlns:xlink="http://www.w3.org/1999/xlink" xml:space="preserve" xmlns:serif="http://www.serif.com/" style="fill-rule:evenodd;clip-rule:evenodd;stroke-linejoin:round;stroke-miterlimit:2;"><g><g id="Final-In-Circle" serif:id="Final In Circle"><circle cx="1066.67" cy="1066.67" r="941.897" style="fill:#fff;"/><path d="M936.695,531.622c34.189,-52.238 79.848,-84.159 129.972,-84.159c50.124,0 95.783,31.921 129.971,84.16c17.483,11.892 34.523,28.831 49.479,52.747c13.26,21.203 22.259,66.601 9.365,124.733c1.962,18.202 2.987,36.959 2.987,56.11c0,46.736 -6.104,91.129 -17.062,131.104c15.061,15.773 23.608,33.809 23.608,52.962c0,0.568 -0.008,1.135 -0.023,1.694c1.487,-0.224 2.991,-0.455 4.52,-0.694c24.252,-3.795 51.17,-16.545 81.552,-37.091c81.513,-55.128 48.027,-228.857 60.347,-281.461c14.88,-63.532 56.8,-111.451 128.157,-146.495c7.345,-3.608 15.144,-5.266 22.801,-5.174c18.845,-0.228 37.05,10.168 45.91,28.21c12.28,25.002 1.965,55.221 -23.036,67.503c-89.215,43.812 -85.049,94.388 -68.141,195.557c7.907,47.3 9.793,142.384 5.754,153.412c-29.038,97.358 -88.609,162.833 -185.85,192.21c58.689,38.394 118.554,49.634 178.421,33.394c11.609,-3.148 63.42,-17.357 77.173,-59.651c13.567,-41.719 -6.817,-122.396 -9.867,-142.081c-8.914,-57.519 -19.127,-85.677 36.949,-141.865c18.277,-18.313 46.798,-21.085 66.135,-3.898c19.34,17.188 24.422,50.382 3.898,66.135c-61.697,47.355 40.204,200.204 -4.452,305.379c-33.462,78.814 -118.28,153.059 -237.776,152.076c-68.667,1.824 -129.78,-17.404 -174.078,-37.441c16.045,58.162 191.32,58.561 295.705,99.806c27.816,-85.173 98.234,-132.522 114.689,-137.82c18.242,-5.874 45.672,-19.354 64.611,8.815c27.884,41.476 -14.976,57.052 -22.005,61.331c-14.928,9.09 -52.495,27.211 -80.135,108.826c37.762,24.586 58.619,35.344 69.842,76.485c7.415,27.182 3.92,63.042 -0.216,79.744c-10.049,40.571 -47.228,33.602 -66.037,23.167c-7.018,-3.894 -15.858,-12.03 -18.67,-26.752c-5.841,-30.588 -5.211,-48.774 -19.29,-63.799c-28.392,57.332 -42.465,101.691 -124.971,141.284c-82.869,39.767 -163.056,35.465 -274.859,-26.424c-82.333,-45.575 -117.145,-116.507 -145.406,-191.958l-10.985,28.042c-26.722,64.745 -62.38,124.038 -134.421,163.916c-111.803,61.889 -191.991,66.191 -274.86,26.424c-82.506,-39.593 -96.578,-83.952 -124.97,-141.284c-14.08,15.025 -13.45,33.211 -19.291,63.799c-2.811,14.722 -11.652,22.858 -18.67,26.752c-18.808,10.435 -55.988,17.404 -66.036,-23.167c-4.137,-16.702 -7.631,-52.562 -0.217,-79.744c11.223,-41.141 32.08,-51.899 69.842,-76.485c-27.64,-81.615 -65.206,-99.736 -80.135,-108.826c-7.029,-4.279 -49.889,-19.855 -22.004,-61.331c18.938,-28.169 46.369,-14.689 64.611,-8.815c16.454,5.298 86.872,52.647 114.688,137.82c104.385,-41.245 279.661,-41.644 295.705,-99.806c-44.298,20.037 -105.411,39.265 -174.078,37.441c-119.496,0.983 -204.313,-73.262 -237.776,-152.076c-44.656,-105.175 57.245,-258.024 -4.452,-305.379c-20.524,-15.753 -15.441,-48.947 3.898,-66.135c19.337,-17.187 47.858,-14.415 66.135,3.898c56.076,56.188 45.863,84.346 36.95,141.865c-3.051,19.685 -23.435,100.362 -9.868,142.081c13.754,42.294 65.564,56.503 77.173,59.651c59.867,16.24 119.732,5 178.421,-33.394c-97.241,-29.377 -156.812,-94.852 -185.85,-192.21c-4.039,-11.028 -2.152,-106.112 5.754,-153.412c16.908,-101.169 21.074,-151.745 -68.14,-195.557c-25.002,-12.282 -35.316,-42.501 -23.037,-67.503c8.86,-18.042 27.065,-28.438 45.91,-28.21c7.658,-0.092 15.456,1.566 22.801,5.174c71.357,35.044 113.277,82.963 128.157,146.495c12.32,52.604 -21.166,226.333 60.348,281.461c30.381,20.546 57.299,33.296 81.551,37.091c1.53,0.239 3.034,0.47 4.521,0.694c-0.016,-0.559 -0.023,-1.126 -0.023,-1.694c0,-19.153 8.546,-37.189 23.607,-52.962c-10.957,-39.975 -17.061,-84.368 -17.061,-131.104c0,-19.151 1.025,-37.908 2.986,-56.11c-12.894,-58.132 -3.894,-103.53 9.365,-124.733c14.957,-23.917 31.998,-40.857 49.479,-52.748Zm473.468,1015.1c48.459,-11.704 83.65,-36.345 109.132,-65.896c-59.531,-1.794 -163.328,45.134 -260.826,-20.952c34.716,45.47 102.89,98.637 151.694,86.848Zm-686.992,0c-48.459,-11.704 -83.651,-36.345 -109.133,-65.896c59.531,-1.794 163.329,45.134 260.827,-20.952c-34.717,45.47 -102.891,98.637 -151.694,86.848Zm249.143,-638.156c31.53,0 57.128,18.241 57.128,40.709c0,22.467 -25.598,40.708 -57.128,40.708c-31.529,0 -57.128,-18.241 -57.128,-40.708c0,-22.468 25.599,-40.709 57.128,-40.709Zm186.882,0c31.53,0 57.128,18.241 57.128,40.709c0,22.467 -25.598,40.708 -57.128,40.708c-31.53,0 -57.128,-18.241 -57.128,-40.708c0,-22.468 25.598,-40.709 57.128,-40.709Z" style="fill:#77aadd;"/></g></g></svg>