<svg width="100%" height="100%" viewBox="0 0 141 141" version="1.1" xmlns="http://www.w3.org/2000/svg" xmlns:xlink="http://www.w3.org/1999/xlink" xml:space="preserve" xmlns:serif="http://www.serif.com/" style="fill-rule:evenodd;clip-rule:evenodd;stroke-linejoin:round;stroke-miterlimit:2;"><g><path d="M140.642,70.317c0,38.837 -31.488,70.321 -70.321,70.321c-38.833,0 -70.321,-31.484 -70.321,-70.321c0,-38.838 31.488,-70.317 70.321,-70.317c38.833,0 70.321,31.479 70.321,70.317" style="fill:#111111;fill-rule:nonzero;"/><path d="M38.747,76.945l1.021,4.875l1.995,-4.562c2.942,-6.734 8.563,-11.967 15.425,-14.375c8.859,-3.105 18.771,-1.23 25.896,4.87c2.421,2.08 2.7,5.746 0.617,8.171c-2.079,2.425 -5.746,2.7 -8.167,0.625c-3.975,-3.412 -9.525,-4.471 -14.512,-2.729c-7.696,2.696 -11.775,11.142 -9.096,18.833c0.85,2.417 2.308,4.575 4.216,6.242l0.909,0.8c4.221,1.913 8.692,2.883 13.267,2.883c17.791,0 32.258,-14.47 32.258,-32.258c0,-17.787 -14.467,-32.262 -32.258,-32.262c-17.788,0 -32.263,14.475 -32.263,32.262c0,2.196 0.233,4.429 0.692,6.625m31.571,-50.475c24.179,0 43.85,19.671 43.85,43.85c0,24.175 -19.671,43.846 -43.85,43.846c-24.18,0 -43.846,-19.671 -43.846,-43.846c0,-24.179 19.666,-43.85 43.846,-43.85" style="fill:#ef8a60;fill-rule:nonzero;"/></g></svg>
