<svg fill="currentColor" viewBox="0 0 136 133" version="1.1" xmlns="http://www.w3.org/2000/svg" xmlns:xlink="http://www.w3.org/1999/xlink" xml:space="preserve" xmlns:serif="http://www.serif.com/" style="fill-rule:evenodd;clip-rule:evenodd;stroke-linejoin:round;stroke-miterlimit:2;">
  <path d="M67.867,0c-37.48,0 -67.867,30.388 -67.867,67.875c0,29.988 19.446,55.425 46.417,64.404c3.396,0.621 4.633,-1.475 4.633,-3.275c0,-1.608 -0.058,-5.879 -0.092,-11.541c-18.879,4.1 -22.862,-9.1 -22.862,-9.1c-3.088,-7.842 -7.538,-9.93 -7.538,-9.93c-6.162,-4.208 0.467,-4.125 0.467,-4.125c6.813,0.48 10.396,6.996 10.396,6.996c6.054,10.371 15.887,7.375 19.754,5.638c0.617,-4.384 2.367,-7.375 4.308,-9.071c-15.07,-1.713 -30.916,-7.538 -30.916,-33.546c-0,-7.408 2.646,-13.467 6.987,-18.212c-0.7,-1.717 -3.029,-8.617 0.663,-17.963c-0,0 5.7,-1.825 18.666,6.958c5.413,-1.508 11.221,-2.258 16.992,-2.283c5.763,0.025 11.571,0.775 16.992,2.283c12.958,-8.783 18.646,-6.958 18.646,-6.958c3.704,9.346 1.375,16.246 0.674,17.963c4.35,4.745 6.98,10.804 6.98,18.212c-0,26.075 -15.871,31.813 -30.992,33.492c2.438,2.096 4.608,6.237 4.608,12.571c0,9.07 -0.083,16.391 -0.083,18.616c0,1.817 1.221,3.929 4.667,3.267c26.95,-8.996 46.379,-34.417 46.379,-64.396c-0,-37.487 -30.392,-67.875 -67.879,-67.875"/>
</svg>
