<svg viewBox="0 0 24 24" fill="none" xmlns="http://www.w3.org/2000/svg">
  <path d="M9.42259 4.73583C9.29642 3.13145 7.89353 1.93312 6.28915 2.05929C5.4884 2.12225 4.78878 2.50326 4.30452 3.06861C3.81851 3.636 3.54939 4.38908 3.61259 5.19271C3.67578 5.99634 4.05931 6.6981 4.62803 7.18255C4.9075 7.4206 5.23169 7.60618 5.58456 7.7256C5.94721 7.84833 6.34019 7.90117 6.74605 7.86925C7.22868 7.8313 7.67458 7.67781 8.05872 7.43805C8.30972 7.2814 8.53433 7.08792 8.72563 6.86578C9.11996 6.40786 9.37265 5.82814 9.42259 5.19813C9.4346 5.04661 9.43488 4.89218 9.42259 4.73583Z" fill="currentColor"/>
  <path d="M18.6942 6.36116C18.6075 5.25803 17.6429 4.43408 16.5398 4.52083C15.9892 4.56412 15.5082 4.82609 15.1752 5.21482C14.906 5.52904 14.7336 5.9261 14.6994 6.35743C14.6912 6.46162 14.691 6.5678 14.6994 6.6753C14.7429 7.22786 15.0066 7.71037 15.3976 8.04347C15.7873 8.37537 16.3033 8.55893 16.8539 8.51564C17.957 8.42889 18.781 7.4643 18.6942 6.36116Z" fill="currentColor"/>
  <path d="M5.87914 14.0057C5.82252 13.2856 5.29841 12.7142 4.62803 12.5659C4.4767 12.5324 4.31791 12.5205 4.15536 12.5332C3.71485 12.5679 3.32998 12.7775 3.06358 13.0885C2.79622 13.4006 2.64816 13.8149 2.68293 14.257C2.71769 14.6991 2.92868 15.0851 3.24155 15.3517C3.55329 15.6172 3.96619 15.7641 4.4067 15.7294C5.2893 15.66 5.94855 14.8883 5.87914 14.0057Z" fill="currentColor"/>
  <path d="M10.6239 19.6704C10.7311 21.0341 11.9236 22.0528 13.2874 21.9455C13.9681 21.892 14.5628 21.5681 14.9744 21.0876C15.1038 20.9365 15.2151 20.77 15.3053 20.5915C15.5031 20.2001 15.5995 19.7512 15.5626 19.282C15.5538 19.1698 15.5376 19.06 15.5146 18.9529C15.3976 18.4079 15.1035 17.9347 14.6994 17.5906C14.2177 17.1802 13.5797 16.9533 12.8991 17.0068C11.5353 17.1141 10.5166 18.3066 10.6239 19.6704Z" fill="currentColor"/>
  <path d="M19.5968 12.3567C18.7142 12.4261 18.055 13.1978 18.1244 14.0805C18.1347 14.2122 18.1607 14.339 18.2005 14.4592C18.3286 14.847 18.5995 15.1655 18.9468 15.3579C19.2124 15.505 19.5227 15.5785 19.8481 15.5529C20.2886 15.5182 20.6735 15.3086 20.9399 14.9976C21.2073 14.6855 21.3553 14.2712 21.3205 13.8291C21.2858 13.387 21.0748 13.001 20.7619 12.7345C20.4502 12.4689 20.0373 12.3221 19.5968 12.3567Z" fill="currentColor"/>
  <path d="M9.42259 4.73583C9.29642 3.13145 7.89353 1.93312 6.28915 2.05929C5.4884 2.12225 4.78878 2.50326 4.30452 3.06861C3.81851 3.636 3.54939 4.38908 3.61259 5.19271C3.67578 5.99634 4.05931 6.6981 4.62803 7.18255C4.9075 7.4206 5.23169 7.60618 5.58456 7.7256C5.94721 7.84833 6.34019 7.90117 6.74605 7.86925C7.22868 7.8313 7.67458 7.67781 8.05872 7.43805C8.30972 7.2814 8.53433 7.08792 8.72563 6.86578C9.11996 6.40786 9.37265 5.82814 9.42259 5.19813C9.4346 5.04661 9.43488 4.89218 9.42259 4.73583Z" stroke="currentColor" stroke-width="1.5"/>
  <path d="M18.6942 6.36116C18.6075 5.25803 17.6429 4.43408 16.5398 4.52083C15.9892 4.56412 15.5082 4.82609 15.1752 5.21482C14.906 5.52904 14.7336 5.9261 14.6994 6.35743C14.6912 6.46162 14.691 6.5678 14.6994 6.6753C14.7429 7.22786 15.0066 7.71037 15.3976 8.04347C15.7873 8.37537 16.3033 8.55893 16.8539 8.51564C17.957 8.42889 18.781 7.4643 18.6942 6.36116Z" stroke="currentColor" stroke-width="1.5"/>
  <path d="M5.87914 14.0057C5.82252 13.2856 5.29841 12.7142 4.62803 12.5659C4.4767 12.5324 4.31791 12.5205 4.15536 12.5332C3.71485 12.5679 3.32998 12.7775 3.06358 13.0885C2.79622 13.4006 2.64816 13.8149 2.68293 14.257C2.71769 14.6991 2.92868 15.0851 3.24155 15.3517C3.55329 15.6172 3.96619 15.7641 4.4067 15.7294C5.2893 15.66 5.94855 14.8883 5.87914 14.0057Z" stroke="currentColor" stroke-width="1.5"/>
  <path d="M10.6239 19.6704C10.7311 21.0341 11.9236 22.0528 13.2874 21.9455C13.9681 21.892 14.5628 21.5681 14.9744 21.0876C15.1038 20.9365 15.2151 20.77 15.3053 20.5915C15.5031 20.2001 15.5995 19.7512 15.5626 19.282C15.5538 19.1698 15.5376 19.06 15.5146 18.9529C15.3976 18.4079 15.1035 17.9347 14.6994 17.5906C14.2177 17.1802 13.5797 16.9533 12.8991 17.0068C11.5353 17.1141 10.5166 18.3066 10.6239 19.6704Z" stroke="currentColor" stroke-width="1.5"/>
  <path d="M19.5968 12.3567C18.7142 12.4261 18.055 13.1978 18.1244 14.0805C18.1347 14.2122 18.1607 14.339 18.2005 14.4592C18.3286 14.847 18.5995 15.1655 18.9468 15.3579C19.2124 15.505 19.5227 15.5785 19.8481 15.5529C20.2886 15.5182 20.6735 15.3086 20.9399 14.9976C21.2073 14.6855 21.3553 14.2712 21.3205 13.8291C21.2858 13.387 21.0748 13.001 20.7619 12.7345C20.4502 12.4689 20.0373 12.3221 19.5968 12.3567Z" stroke="currentColor" stroke-width="1.5"/>
  <path d="M6.52386 4.99951L13.0394 19.7058" stroke="currentColor" stroke-width="1.5"/>
  <path d="M4.24353 14.2142L6.47737 4.953" stroke="currentColor"/>
  <path d="M13.0641 19.5702L19.6811 13.9888L16.702 6.56042" stroke="currentColor"/>
</svg>
