<svg viewBox="0 0 512 512" fill="none"
  xmlns="http://www.w3.org/2000/svg">
  <path fill-rule="evenodd" clip-rule="evenodd" d="M33.4979 359.797C33.4735 359.825 33.4491 359.853 33.4247 359.881L33.4229 359.883C33.4478 359.854 33.4729 359.826 33.4979 359.797Z" fill="#FF6666"/>
  <path fill-rule="evenodd" clip-rule="evenodd" d="M447.396 424.655C477.862 451.732 485.234 361.369 436.705 365.716C419.698 367.239 404.529 371.986 389.787 376.599C338.367 391.523 309.839 380.104 295.291 373.409C282.237 367.743 273.898 359.528 270.51 355.46C273.923 364.285 279.492 371.444 287.778 375.875C336.759 402.066 349.289 417.833 355.177 434.552C366.234 465.955 351.491 496.509 324.637 509.152C310.344 515.881 283.039 511.786 286.199 484.92C301.469 509.152 328.628 482.347 316.062 455.947C306.869 436.633 274.527 432.066 246.836 428.156L246.833 428.156L246.83 428.155C242.801 427.586 238.87 427.031 235.124 426.447C191.7 419.671 176.929 395.629 175.78 367.516C171.684 371.244 169.606 372.589 166.189 374.801L166.094 374.862C164.646 375.8 163.217 376.682 161.806 377.512C139.196 390.82 121.332 390.751 103.964 390.683C95.7954 390.651 87.736 390.62 79.3437 391.981C51.1811 396.549 47.7002 444.737 79.3437 449.842C91.1416 451.745 94.1862 442.229 86.5747 434.552C93.0445 430.809 107.445 441.911 98.3726 458.597C89.2997 475.283 45.4211 475.727 27.9659 447.495C13.6751 424.381 12.8337 383.663 33.3653 359.95C32.1567 359.63 28.2235 357.771 26.6159 356.914C18.6359 352.656 1.44227 338.952 0.282941 299.583C-0.70165 266.148 29.1139 232.154 75.5793 232.154C94.1262 232.154 112.177 239.554 122.881 247.776C145.19 264.913 175.514 255.026 183.276 225.95H321.425C324.11 266.831 362.492 254.726 391.416 234.17C420.34 213.614 456.956 212.796 484.707 234.17C533.336 271.623 503.322 322.367 494.251 335.455C492.909 337.391 490.915 340.145 489.93 341.31C515.861 370.093 516.345 409.888 486.976 434.552C475.178 444.46 447.396 447.495 447.396 424.655ZM457.488 317.975C462.011 320.046 466.252 322.343 470.204 324.835C471.104 323.671 473.064 319.785 473.607 318.572C492.59 276.151 420.72 253.645 393.113 308.805C392.97 309.091 392.815 309.406 392.649 309.743C391.132 312.826 388.73 317.707 386.55 318.398C407.09 312.256 425.251 308.229 446.08 313.742L446.225 313.78C447.618 314.152 449.023 314.566 450.441 315.025C452.861 315.948 455.211 316.933 457.488 317.975ZM44.6907 340.846C46.3833 342.22 49.3411 343.817 51.4426 344.53L51.4332 344.536C51.5626 344.446 51.6917 344.357 51.8206 344.268C53.8827 342.848 55.8868 341.581 57.8917 340.423C59.9548 336.956 59.9927 334.31 59.5791 332.026C59.2611 330.27 57.671 328.53 54.6062 326.127C58.8328 325.185 62.1199 326.023 65.4902 328.979C66.484 329.85 68.4183 332.075 69.1489 334.939C71.5432 333.952 74.0647 333 76.7894 332.026C89.0578 327.641 99.5597 323.703 108.615 320.042C110.023 319.473 111.396 318.91 112.736 318.354C110.226 317.959 105.521 313.106 104.746 312.202C97.6552 303.929 76.6867 281.869 54.6062 291.154C25.6029 303.351 33.0479 331.396 44.6907 340.846Z" fill="#FF6666"/>
  <path d="M450.441 315.025C452.861 315.948 455.211 316.933 457.488 317.975C453.997 315.333 456.521 311.174 456.948 310.157C457.569 308.679 459.1 307.135 461.659 305.128C457.634 304.23 454.462 304.947 451.258 307.57C448.703 309.662 446.713 311.835 446.08 313.742L446.225 313.78C447.618 314.152 449.023 314.566 450.441 315.025Z" fill="#FF6666"/>
  <path d="M295.291 373.409C276.917 355.91 268.66 311.459 278.801 268.965C267.728 296.057 261.343 331.761 270.51 355.46C273.898 359.528 282.237 367.743 295.291 373.409Z" fill="#D96666"/>
  <path d="M202.495 275.436C172.93 319.919 163.022 343.602 166.094 374.862L166.189 374.801C169.606 372.589 171.684 371.244 175.78 367.516C175.32 356.243 177.05 344.315 180.001 332.583C183.481 318.748 188.66 305.186 193.947 293.292C196.852 286.76 199.789 280.731 202.495 275.436Z" fill="#D96666"/>
  <path fill-rule="evenodd" clip-rule="evenodd" d="M65.4902 328.979C63.0744 329.972 61.7619 330.642 59.5791 332.026C59.9927 334.31 59.9548 336.956 57.8917 340.423C61.5244 338.324 65.16 336.583 69.1489 334.939C68.4183 332.075 66.484 329.85 65.4902 328.979Z" fill="#D96666"/>
  <path d="M174.724 267.211C159.381 289.832 129.451 309.847 104.746 312.202C105.521 313.106 110.226 317.959 112.736 318.354C153.143 301.567 162.799 290.321 174.724 267.211Z" fill="#D96666"/>
  <path d="M393.113 308.805C351.196 324.834 330.354 305.207 321.425 278.548C322.68 311.826 357.706 327.022 386.55 318.398C388.968 317.632 391.659 311.71 393.113 308.805Z" fill="#D96666"/>
  <path d="M450.441 315.025C452.861 315.948 455.211 316.933 457.488 317.975C453.997 315.333 456.521 311.174 456.948 310.157C455.64 309.193 454.266 308.619 451.258 307.57C448.703 309.662 446.713 311.835 446.08 313.742C447.52 314.123 448.973 314.55 450.441 315.025Z" fill="#D96666"/>
  <path d="M470.204 324.835C477.88 329.676 484.47 335.249 489.93 341.31C490.915 340.145 492.909 337.391 494.251 335.455C488.997 328.796 484.337 325.103 473.607 318.572C473.064 319.785 471.104 323.671 470.204 324.835Z" fill="#D96666"/>
  <path fill-rule="evenodd" clip-rule="evenodd" d="M33.4979 359.797C33.4735 359.825 33.4491 359.853 33.4247 359.881L33.4229 359.883C33.4478 359.854 33.4729 359.826 33.4979 359.797Z" fill="#FF6666"/>
  <path d="M38.6221 354.677C43.3813 350.54 47.5196 347.258 51.4368 344.534C49.3352 343.821 46.3833 342.22 44.6907 340.846C37.1208 346.168 33.1822 349.681 26.6159 356.914C28.2235 357.771 32.1567 359.63 33.3653 359.95C33.3845 359.927 33.4037 359.905 33.4229 359.883C33.4478 359.854 33.4729 359.826 33.4979 359.797C33.5147 359.778 33.5314 359.759 33.5482 359.739C35.1152 357.948 36.8054 356.256 38.6221 354.677Z" fill="#D96666"/>
  <path fill-rule="evenodd" clip-rule="evenodd" d="M193.947 293.292C196.342 288.004 198.579 283.45 200.359 279.825C201.177 278.16 201.899 276.69 202.495 275.436C199.789 280.731 196.852 286.76 193.947 293.292Z" fill="#FF6666"/>
  <path fill-rule="evenodd" clip-rule="evenodd" d="M377.694 124.771C377.694 193.68 321.832 249.542 252.923 249.542C184.014 249.542 128.152 193.68 128.152 124.771C128.152 55.8619 184.014 0 252.923 0C321.832 0 377.694 55.8619 377.694 124.771ZM329.5 171.67C329.5 187.26 319.532 199.898 307.236 199.898C294.94 199.898 284.972 187.26 284.972 171.67C284.972 156.08 294.94 143.442 307.236 143.442C319.532 143.442 329.5 156.08 329.5 171.67ZM220.875 171.67C220.875 187.26 210.907 199.898 198.611 199.898C186.315 199.898 176.347 187.26 176.347 171.67C176.347 156.08 186.315 143.442 198.611 143.442C210.907 143.442 220.875 156.08 220.875 171.67Z" fill="#FF6666"/>
  <mask id="mask0_504_35" style="mask-type:alpha" maskUnits="userSpaceOnUse" x="283" y="141" width="49" height="61">
    <ellipse cx="307.236" cy="171.67" rx="23.8002" ry="30.1753" fill="#D9D9D9"/>
  </mask>
  <g mask="url(#mask0_504_35)">
    <ellipse cx="307.236" cy="171.67" rx="23.8002" ry="30.1753" fill="white"/>
    <ellipse cx="296.191" cy="174.051" rx="16.636" ry="21.0921" fill="black"/>
  </g>
  <mask id="mask1_504_35" style="mask-type:alpha" maskUnits="userSpaceOnUse" x="174" y="141" width="49" height="61">
    <ellipse cx="198.611" cy="171.67" rx="23.8004" ry="30.1756" fill="#D9D9D9"/>
  </mask>
  <g mask="url(#mask1_504_35)">
    <ellipse cx="198.611" cy="171.67" rx="23.8004" ry="30.1756" fill="white"/>
    <ellipse cx="209.502" cy="173.67" rx="16.636" ry="21.0921" fill="black"/>
  </g>
</svg>
