<svg viewBox="0 0 250 250" fill="none"
  xmlns="http://www.w3.org/2000/svg">
  <path fill-rule="evenodd" clip-rule="evenodd" d="M249.836 124.771C249.836 193.68 193.975 249.542 125.065 249.542C56.1563 249.542 0.294434 193.68 0.294434 124.771C0.294434 55.8619 56.1563 0 125.065 0C193.975 0 249.836 55.8619 249.836 124.771ZM201.642 171.67C201.642 187.26 191.674 199.898 179.378 199.898C167.082 199.898 157.114 187.26 157.114 171.67C157.114 156.08 167.082 143.442 179.378 143.442C191.674 143.442 201.642 156.08 201.642 171.67ZM93.0174 171.67C93.0174 187.26 83.0494 199.898 70.7533 199.898C58.4572 199.898 48.4893 187.26 48.4893 171.67C48.4893 156.08 58.4572 143.442 70.7533 143.442C83.0494 143.442 93.0174 156.08 93.0174 171.67Z" fill="#FF6666"/>
  <mask id="mask0_508_218" style="mask-type:alpha" maskUnits="userSpaceOnUse" x="145" y="117" width="68" height="85">
    <ellipse cx="179.378" cy="159.462" rx="33.4292" ry="42.3835" fill="#D9D9D9"/>
  </mask>
  <g mask="url(#mask0_508_218)">
    <ellipse cx="179.378" cy="159.462" rx="33.4292" ry="42.3835" fill="white"/>
    <ellipse cx="163.865" cy="162.805" rx="23.3666" ry="29.6255" fill="black"/>
  </g>
  <mask id="mask1_508_218" style="mask-type:alpha" maskUnits="userSpaceOnUse" x="37" y="117" width="68" height="85">
    <ellipse cx="70.7535" cy="159.462" rx="33.4292" ry="42.3836" fill="#D9D9D9"/>
  </mask>
  <g mask="url(#mask1_508_218)">
    <ellipse cx="70.7535" cy="159.462" rx="33.4292" ry="42.3836" fill="white"/>
    <ellipse cx="86.0505" cy="162.271" rx="23.3664" ry="29.6253" fill="black"/>
  </g>
</svg>
