<svg viewBox="0 0 657 250" fill="none"
  xmlns="http://www.w3.org/2000/svg">
  <path d="M125 250C194.036 250 250 194.036 250 125C250 55.9644 194.036 0 125 0C55.9644 0 0 55.9644 0 125C0 194.036 55.9644 250 125 250Z" fill="#FF6666"/>
  <mask id="mask0_948_122" style="mask-type:alpha" maskUnits="userSpaceOnUse" x="146" y="117" width="67" height="85">
    <ellipse cx="33.4855" cy="42.4614" rx="33.4855" ry="42.4614" transform="matrix(-1 0 0 1 212.981 117)" fill="#D9D9D9"/>
  </mask>
  <g mask="url(#mask0_948_122)">
    <ellipse cx="33.4855" cy="42.4614" rx="33.4855" ry="42.4614" transform="matrix(-1 0 0 1 212.981 117)" fill="white"/>
    <ellipse cx="23.4057" cy="29.6797" rx="23.4057" ry="29.6797" transform="matrix(-1 0 0 1 187.579 132.596)" fill="black"/>
  </g>
  <mask id="mask1_948_122" style="mask-type:alpha" maskUnits="userSpaceOnUse" x="37" y="117" width="67" height="85">
    <ellipse cx="70.4855" cy="159.461" rx="33.4855" ry="42.4614" fill="#D9D9D9"/>
  </mask>
  <g mask="url(#mask1_948_122)">
    <ellipse cx="70.4855" cy="159.461" rx="33.4855" ry="42.4614" fill="white"/>
    <ellipse cx="85.808" cy="162.276" rx="23.4057" ry="29.6797" fill="black"/>
  </g>
  <path d="M656.983 124.738C656.983 133.57 655.001 141.44 651.038 148.348C647.187 155.256 641.922 160.691 635.241 164.654C628.673 168.618 621.256 170.599 612.989 170.599C604.723 170.599 597.249 168.618 590.568 164.654C583.887 160.691 578.565 155.256 574.601 148.348C570.751 141.44 568.826 133.57 568.826 124.738C568.826 115.905 570.751 108.035 574.601 101.127C578.565 94.2198 583.887 88.7844 590.568 84.821C597.249 80.8577 604.723 78.876 612.989 78.876C621.256 78.876 628.673 80.8577 635.241 84.821C641.922 88.7844 647.187 94.2198 651.038 101.127C655.001 108.035 656.983 115.905 656.983 124.738ZM643.394 124.738C643.394 118.17 642.035 112.395 639.317 107.412C636.713 102.43 633.089 98.5229 628.446 95.6919C623.917 92.861 618.764 91.4455 612.989 91.4455C607.214 91.4455 602.005 92.861 597.362 95.6919C592.833 98.5229 589.209 102.43 586.491 107.412C583.774 112.395 582.415 118.17 582.415 124.738C582.415 131.192 583.774 136.911 586.491 141.893C589.209 146.876 592.833 150.839 597.362 153.783C602.005 156.614 607.214 158.03 612.989 158.03C618.764 158.03 623.917 156.614 628.446 153.783C633.089 150.839 636.713 146.876 639.317 141.893C642.035 136.911 643.394 131.192 643.394 124.738Z" fill="currentColor"/>
  <path d="M510.565 83.2922H550.481C552.293 83.2922 553.765 83.9151 554.898 85.1607C556.143 86.4063 556.766 87.8784 556.766 89.577C556.766 91.3888 556.143 92.9175 554.898 94.1632C553.765 95.2956 552.293 95.8617 550.481 95.8617H510.565C508.866 95.8617 507.394 95.2389 506.148 93.9933C504.903 92.7477 504.28 91.219 504.28 89.4071C504.28 87.7086 504.903 86.2931 506.148 85.1607C507.394 83.9151 508.866 83.2922 510.565 83.2922ZM528.4 60.1915C530.325 60.1915 531.91 60.871 533.156 62.2298C534.402 63.4755 535.024 65.0608 535.024 66.9859V149.027C535.024 151.745 535.421 153.783 536.213 155.142C537.006 156.501 538.025 157.464 539.271 158.03C540.63 158.483 541.932 158.709 543.178 158.709C544.31 158.709 545.272 158.539 546.065 158.2C546.971 157.747 547.99 157.52 549.123 157.52C550.255 157.52 551.274 158.086 552.18 159.219C553.199 160.238 553.709 161.597 553.709 163.295C553.709 165.334 552.52 167.089 550.142 168.561C547.764 169.92 545.103 170.599 542.158 170.599C540.573 170.599 538.591 170.486 536.213 170.26C533.949 170.033 531.684 169.297 529.419 168.051C527.154 166.806 525.229 164.768 523.644 161.937C522.172 158.992 521.436 154.916 521.436 149.707V66.9859C521.436 65.0608 522.115 63.4755 523.474 62.2298C524.833 60.871 526.475 60.1915 528.4 60.1915Z" fill="currentColor"/>
  <path d="M461.476 78.876C467.251 78.876 472.46 79.4988 477.103 80.7444C481.746 81.99 485.426 83.6886 488.144 85.8402C490.861 87.9917 492.22 90.4263 492.22 93.1441C492.22 94.6162 491.711 96.0317 490.692 97.3905C489.672 98.7494 488.314 99.4288 486.615 99.4288C485.03 99.4288 483.727 99.1457 482.708 98.5795C481.802 98.0133 480.896 97.2773 479.991 96.3714C479.198 95.4655 478.065 94.6728 476.593 93.9934C475.235 93.2007 473.253 92.5779 470.648 92.1249C468.044 91.672 465.439 91.4455 462.835 91.4455C456.607 91.4455 451.115 92.9176 446.359 95.8618C441.716 98.806 438.036 102.769 435.318 107.752C432.6 112.734 431.241 118.396 431.241 124.738C431.241 131.079 432.543 136.741 435.148 141.724C437.752 146.706 441.376 150.669 446.019 153.614C450.662 156.558 456.041 158.03 462.155 158.03C466.119 158.03 469.289 157.69 471.667 157.011C474.046 156.331 476.027 155.539 477.613 154.633C479.651 153.5 481.18 152.368 482.199 151.236C483.331 150.103 484.803 149.537 486.615 149.537C488.54 149.537 490.012 150.16 491.031 151.405C492.164 152.651 492.73 154.18 492.73 155.992C492.73 158.03 491.314 160.181 488.483 162.446C485.652 164.711 481.802 166.636 476.933 168.221C472.177 169.807 466.742 170.599 460.627 170.599C452.021 170.599 444.49 168.618 438.036 164.654C431.581 160.578 426.542 155.086 422.918 148.178C419.408 141.157 417.653 133.344 417.653 124.738C417.653 116.132 419.464 108.375 423.088 101.467C426.825 94.5595 431.977 89.0675 438.545 84.9909C445.113 80.9143 452.757 78.876 461.476 78.876Z" fill="currentColor"/>
  <path d="M404.913 124.738C404.913 133.57 402.932 141.44 398.968 148.348C395.118 155.256 389.852 160.691 383.171 164.654C376.604 168.618 369.186 170.599 360.92 170.599C352.654 170.599 345.18 168.618 338.499 164.654C331.818 160.691 326.495 155.256 322.532 148.348C318.682 141.44 316.757 133.57 316.757 124.738C316.757 115.905 318.682 108.035 322.532 101.127C326.495 94.2198 331.818 88.7844 338.499 84.821C345.18 80.8577 352.654 78.876 360.92 78.876C369.186 78.876 376.604 80.8577 383.171 84.821C389.852 88.7844 395.118 94.2198 398.968 101.127C402.932 108.035 404.913 115.905 404.913 124.738ZM391.325 124.738C391.325 118.17 389.966 112.395 387.248 107.412C384.643 102.43 381.02 98.5229 376.377 95.6919C371.848 92.861 366.695 91.4455 360.92 91.4455C355.145 91.4455 349.936 92.861 345.293 95.6919C340.763 98.5229 337.14 102.43 334.422 107.412C331.704 112.395 330.345 118.17 330.345 124.738C330.345 131.192 331.704 136.911 334.422 141.893C337.14 146.876 340.763 150.839 345.293 153.783C349.936 156.614 355.145 158.03 360.92 158.03C366.695 158.03 371.848 156.614 376.377 153.783C381.02 150.839 384.643 146.876 387.248 141.893C389.966 136.911 391.325 131.192 391.325 124.738Z" fill="currentColor"/>
</svg>
