<svg width="900" height="297" viewBox="0 0 900 297" fill="none" xmlns="http://www.w3.org/2000/svg" preserveAspectRatio="none">
<path d="M0 85L16.7 79.7C33.3 74.3 66.7 63.7 100 61.5C133.3 59.3 166.7 78.7 200 79.7C233.3 80.7 266.7 47.4 300 47.8C333.3 48.1 366.7 69 400 56.7C433.3 44.3 466.7 14.7 500 15.8C533.3 17 566.7 49 600 47.8C633.3 46.7 666.7 12.3 700 3C733.3 -6.3 766.7 9.3 800 18.5C833.3 27.7 866.7 30.3 883.3 31.7L900 33V297H883.3C866.7 297 833.3 297 800 297C766.7 297 733.3 297 700 297C666.7 297 633.3 297 600 297C566.7 297 533.3 297 500 297C466.7 297 433.3 297 400 297C366.7 297 333.3 297 300 297C266.7 297 233.3 297 200 297C166.7 297 133.3 297 100 297C66.7 297 33.3 297 16.7 297H0V85Z" fill="#2563EB"/>
<path d="M0 68L16.7 75.3C33.3 82.7 66.7 97.3 100 98.8C133.3 100.3 166.7 75 200 75.3C233.3 75.6 266.7 101.7 300 98C333.3 94.3 366.7 74.7 400 73.7C433.3 72.7 466.7 90.3 500 100.3C533.3 110.3 570.5 83.8949 613 89C646.3 93 693.2 120.6 726.5 111C759.8 101.3 766.7 82 800 65.3C833.3 48.7 866.7 40.3 883.3 36.2L900 32V297H883.3C866.7 297 833.3 297 800 297C766.7 297 733.3 297 700 297C666.7 297 633.3 297 600 297C566.7 297 533.3 297 500 297C466.7 297 433.3 297 400 297C366.7 297 333.3 297 300 297C266.7 297 233.3 297 200 297C166.7 297 133.3 297 100 297C66.7 297 33.3 297 16.7 297H0V68Z" fill="#2E4DAF"/>
<path d="M0 95L16.7 103.2C33.3 111.3 66.7 127.7 100 137.7C133.3 147.7 166.7 151.3 200 147.5C233.3 143.7 266.7 132.3 300 121C333.3 109.7 366.7 98.3 400 107.7C433.3 117 466.7 147 500 160C533.3 173 566.7 169 600 158C633.3 147 666.7 129 700 128.5C733.3 128 766.7 145 800 148.3C833.3 151.7 866.7 141.3 883.3 136.2L900 131V297H883.3C866.7 297 833.3 297 800 297C766.7 297 733.3 297 700 297C666.7 297 633.3 297 600 297C566.7 297 533.3 297 500 297C466.7 297 433.3 297 400 297C366.7 297 333.3 297 300 297C266.7 297 233.3 297 200 297C166.7 297 133.3 297 100 297C66.7 297 33.3 297 16.7 297H0V95Z" fill="#2C3876"/>
<path d="M0 225L16.7 215.2C33.3 205.3 66.7 185.7 100 175C133.3 164.3 166.7 162.7 200 168.5C233.3 174.3 266.7 187.7 300 192.8C333.3 198 366.7 195 400 193C433.3 191 466.7 190 500 185.3C533.3 180.7 566.7 172.3 600 176.8C633.3 181.3 666.7 198.7 700 203.7C733.3 208.7 766.7 201.3 800 200C833.3 198.7 866.7 203.3 883.3 205.7L900 208V297H883.3C866.7 297 833.3 297 800 297C766.7 297 733.3 297 700 297C666.7 297 633.3 297 600 297C566.7 297 533.3 297 500 297C466.7 297 433.3 297 400 297C366.7 297 333.3 297 300 297C266.7 297 233.3 297 200 297C166.7 297 133.3 297 100 297C66.7 297 33.3 297 16.7 297H0V225Z" fill="#222541"/>
<path d="M0 245L16.7 247.8C33.3 250.7 66.7 256.3 100 258.3C133.3 260.3 166.7 258.7 200 259.5C233.3 260.3 266.7 263.7 300 264.7C333.3 265.7 366.7 264.3 400 260.3C433.3 256.3 466.7 249.7 500 247.5C533.3 245.3 566.7 247.7 600 248.8C633.3 250 666.7 250 700 241.8C733.3 233.7 766.7 217.3 800 219C833.3 220.7 866.7 240.3 883.3 250.2L900 260V297H883.3C866.7 297 833.3 297 800 297C766.7 297 733.3 297 700 297C666.7 297 633.3 297 600 297C566.7 297 533.3 297 500 297C466.7 297 433.3 297 400 297C366.7 297 333.3 297 300 297C266.7 297 233.3 297 200 297C166.7 297 133.3 297 100 297C66.7 297 33.3 297 16.7 297H0V245Z" fill="#121212"/>
</svg>
