<?xml version="1.0" encoding="UTF-8" standalone="no"?>
<!DOCTYPE svg PUBLIC "-//W3C//DTD SVG 1.1//EN" "http://www.w3.org/Graphics/SVG/1.1/DTD/svg11.dtd">
<svg width="100%" height="100%" viewBox="0 0 73 73" version="1.1" xmlns="http://www.w3.org/2000/svg" xmlns:xlink="http://www.w3.org/1999/xlink" xml:space="preserve" xmlns:serif="http://www.serif.com/" style="fill-rule:evenodd;clip-rule:evenodd;stroke-linejoin:round;stroke-miterlimit:2;">
    <g transform="matrix(1,0,0,1,-224.481,-227.076)">
        <g transform="matrix(1,0,0,1,194,0)">
            <g transform="matrix(1,0,0,1,-67.4986,-83.1556)">
                <g transform="matrix(1,0,0,1,-136.557,232.278)">
                    <rect x="234.537" y="77.954" width="72.994" height="72.994" style="fill:rgb(18,18,18);"/>
                </g>
                <g transform="matrix(1.43644,0,0,1.43644,-711.273,308.765)">
                    <g transform="matrix(1,0,0,1,-4.293,2.40954)">
                        <g transform="matrix(1,0,0,1,5.41995,-5.06993)">
                            <path d="M594.912,33.009C596.783,32.914 598.1,32.077 599.003,30.434C599.158,30.152 599.512,30.05 599.794,30.204C600.075,30.359 600.179,30.713 600.024,30.995C599.301,32.31 598.344,33.213 597.132,33.714C596.392,33.81 595.652,33.573 594.912,33.009Z" style="fill:rgb(224,108,117);"/>
                        </g>
                        <g transform="matrix(1,0,0,1,5.41995,-5.06993)">
                            <path d="M578.172,33.711C576.963,33.21 576.008,32.308 575.288,30.995C575.132,30.713 575.236,30.36 575.518,30.204C575.799,30.05 576.154,30.152 576.308,30.435C577.211,32.079 578.53,32.916 580.404,33.009C579.66,33.583 578.915,33.814 578.172,33.711Z" style="fill:rgb(224,108,117);"/>
                        </g>
                        <path d="M586.607,27.937C586.66,27.935 586.713,27.931 586.767,27.928C588.454,27.791 589.246,26.792 589.246,26.792C587.932,27.197 586.618,27.086 586.618,27.086C586.421,27.086 586.224,27.073 586.03,27.047C584.69,26.867 583.605,26.071 583.053,24.864C582.516,23.689 582.514,22.561 583.047,21.684C583.507,20.928 584.33,20.449 585.248,20.405C585.991,20.369 586.454,20.647 586.711,20.887C587.302,21.435 587.339,22.225 587.341,22.313C587.348,22.634 587.094,22.902 586.773,22.91C586.453,22.918 586.187,22.666 586.177,22.347C586.172,22.238 586.114,21.918 585.914,21.736C585.776,21.61 585.576,21.555 585.305,21.568C584.774,21.594 584.301,21.864 584.042,22.29C583.716,22.826 583.741,23.568 584.112,24.379C584.5,25.228 585.236,25.766 586.185,25.893C587.624,26.087 589.235,25.303 590.493,23.797C590.522,23.762 590.553,23.733 590.588,23.707L590.588,23.686C590.588,23.686 591.09,22.442 590.032,21.648C590.032,21.648 588.84,21.754 588.761,20.51C588.682,19.266 589.714,19.663 589.714,18.684C589.714,17.704 589.237,18.684 589.237,15.878C589.237,13.258 591.117,12.252 593.075,12.252C595.034,12.252 596.913,13.258 596.913,15.878C596.913,18.684 596.437,17.704 596.437,18.684C596.437,19.663 597.47,19.266 597.39,20.51C597.311,21.754 596.12,21.648 596.12,21.648C595.061,22.442 595.564,23.686 595.564,23.686C595.564,23.693 595.564,23.7 595.564,23.707C595.598,23.733 595.63,23.762 595.659,23.797C596.917,25.303 598.528,26.087 599.966,25.893C600.915,25.765 601.651,25.228 602.039,24.379C602.41,23.568 602.435,22.826 602.109,22.29C601.85,21.864 601.378,21.594 600.846,21.568C600.575,21.555 600.376,21.61 600.237,21.736C600.037,21.918 599.98,22.238 599.975,22.347C599.964,22.666 599.699,22.918 599.378,22.91C599.056,22.902 598.802,22.634 598.811,22.313C598.813,22.225 598.849,21.435 599.44,20.887C599.698,20.647 600.161,20.369 600.903,20.405C601.821,20.449 602.643,20.928 603.104,21.684C603.637,22.561 603.635,23.689 603.099,24.864C602.546,26.071 601.461,26.867 600.121,27.047C599.926,27.073 599.73,27.086 599.533,27.086C599.533,27.086 598.219,27.197 596.904,26.792C596.904,26.792 597.697,27.791 599.384,27.928C599.439,27.932 599.494,27.935 599.548,27.938C598.153,29.014 596.758,28.889 595.363,27.607C593.838,29.027 592.313,29.008 590.788,27.607C589.395,28.905 588.001,29.001 586.607,27.937ZM590.569,20.986C590.218,20.986 589.934,20.702 589.934,20.351C589.934,20 590.218,19.716 590.569,19.716C590.919,19.716 591.204,20 591.204,20.351C591.204,20.702 590.919,20.986 590.569,20.986ZM594.948,20.351C594.948,20 595.232,19.716 595.583,19.716C595.934,19.716 596.218,20 596.218,20.351C596.218,20.702 595.934,20.986 595.583,20.986C595.232,20.986 594.948,20.702 594.948,20.351Z" style="fill:rgb(224,108,117);"/>
                    </g>
                    <g transform="matrix(0.808686,0,0,0.808686,113.959,-11.1356)">
                        <g>
                            <g transform="matrix(0.371236,0,0,0.371236,576.493,54.9641)">
                                <path d="M0,13.792C-1.162,13.792 -2.315,13.494 -3.334,12.928L-3.407,12.874C-3.755,12.532 -4.021,12.116 -4.177,11.669C-4.75,10.026 -3.878,8.221 -2.232,7.645C-1.17,7.274 0.021,7.499 0.872,8.229C1.389,8.673 2.173,8.611 2.617,8.094C3.062,7.576 3,6.792 2.481,6.348C0.959,5.043 -1.16,4.645 -3.051,5.307C-4.398,5.779 -5.508,6.741 -6.176,8.017L-6.659,8.939L-6.813,7.91C-6.869,7.531 -6.896,7.209 -6.896,6.896C-6.896,3.094 -3.802,-0 0,-0C3.803,-0 6.896,3.094 6.896,6.896C6.896,10.698 3.803,13.792 0,13.792M0,-2.477C-5.168,-2.477 -9.372,1.728 -9.372,6.896C-9.372,10.151 -7.709,13.126 -4.923,14.856C-4.794,14.96 -4.692,15.021 -4.575,15.071C-3.157,15.86 -1.585,16.269 0,16.269C5.168,16.269 9.372,12.064 9.372,6.896C9.372,1.728 5.168,-2.477 0,-2.477" style="fill:rgb(224,108,117);fill-rule:nonzero;"/>
                            </g>
                            <g transform="matrix(0.371236,0,0,0.371236,584.388,61.0036)">
                                <path d="M0,-18.745C-5.167,-18.745 -9.371,-14.54 -9.371,-9.372C-9.371,-4.204 -5.167,0 0,0C2.98,0 5.716,-1.37 7.506,-3.757C7.915,-4.304 7.804,-5.081 7.258,-5.491C6.711,-5.899 5.933,-5.787 5.524,-5.243C4.207,-3.485 2.194,-2.476 0,-2.476C-3.802,-2.476 -6.896,-5.57 -6.896,-9.372C-6.896,-13.175 -3.802,-16.268 0,-16.268C1.858,-16.268 3.601,-15.54 4.907,-14.219C5.384,-13.735 6.171,-13.728 6.658,-14.208C7.144,-14.687 7.148,-15.473 6.669,-15.959C4.893,-17.756 2.525,-18.745 0,-18.745" style="fill:rgb(224,108,117);fill-rule:nonzero;"/>
                            </g>
                            <g transform="matrix(0.371236,0,0,0.371236,588.578,58.2112)">
                                <path d="M0,-6.857L1.257,-6.857L1.285,1.476C1.285,4.808 3.996,7.518 7.327,7.518C10.659,7.518 13.369,4.808 13.369,1.476C13.369,-0.672 12.214,-2.676 10.354,-3.754L10.353,-3.754C10.067,-3.92 9.733,-3.963 9.415,-3.88C9.096,-3.794 8.827,-3.59 8.661,-3.304C8.496,-3.018 8.45,-2.684 8.536,-2.364C8.621,-2.045 8.825,-1.777 9.111,-1.612C10.21,-0.974 10.893,0.208 10.893,1.476C10.893,3.442 9.293,5.041 7.327,5.041C5.361,5.041 3.762,3.442 3.762,1.476L3.733,-6.857L9.783,-6.857C10.467,-6.857 11.021,-7.413 11.021,-8.096C11.021,-8.778 10.467,-9.334 9.783,-9.334L3.724,-9.334L3.706,-13.142C3.704,-13.821 3.148,-14.375 2.469,-14.375C1.78,-14.371 1.228,-13.814 1.229,-13.131L1.247,-9.334L0,-9.334C-0.684,-9.334 -1.238,-8.778 -1.238,-8.096C-1.238,-7.413 -0.684,-6.857 0,-6.857" style="fill:rgb(224,108,117);fill-rule:nonzero;"/>
                            </g>
                            <g transform="matrix(0.371236,0,0,0.371236,600.321,56.9983)">
                                <path d="M0,2.833L-0.218,3.875L-0.645,2.9C-1.273,1.461 -2.476,0.342 -3.942,-0.172C-5.836,-0.836 -7.954,-0.436 -9.477,0.869C-9.995,1.313 -10.055,2.097 -9.609,2.615C-9.164,3.133 -8.382,3.192 -7.863,2.749C-7.014,2.019 -5.827,1.793 -4.762,2.165C-3.116,2.741 -2.244,4.547 -2.817,6.19C-2.999,6.708 -3.311,7.169 -3.719,7.524L-3.912,7.696C-4.814,8.104 -5.77,8.312 -6.749,8.312C-10.551,8.312 -13.644,5.219 -13.644,1.416C-13.644,-2.386 -10.551,-5.48 -6.749,-5.48C-2.946,-5.48 0.147,-2.386 0.147,1.416C0.147,1.886 0.098,2.363 0,2.833M-6.749,-7.956C-11.917,-7.956 -16.121,-3.751 -16.121,1.416C-16.121,6.584 -11.917,10.789 -6.749,10.789C-1.58,10.789 2.624,6.584 2.624,1.416C2.624,-3.751 -1.58,-7.956 -6.749,-7.956" style="fill:rgb(224,108,117);fill-rule:nonzero;"/>
                            </g>
                        </g>
                    </g>
                </g>
            </g>
        </g>
    </g>
</svg>
