<?xml version="1.0" encoding="UTF-8" standalone="no"?>
<!DOCTYPE svg PUBLIC "-//W3C//DTD SVG 1.1//EN" "http://www.w3.org/Graphics/SVG/1.1/DTD/svg11.dtd">
<svg width="100%" height="100%" viewBox="0 0 36 36" version="1.1" xmlns="http://www.w3.org/2000/svg" xmlns:xlink="http://www.w3.org/1999/xlink" xml:space="preserve" xmlns:serif="http://www.serif.com/" style="fill-rule:evenodd;clip-rule:evenodd;stroke-linejoin:round;stroke-miterlimit:2;">
    <g transform="matrix(1,0,0,1,-23.4858,-341.514)">
        <g transform="matrix(1,0,0,1,194,0)">
            <g transform="matrix(1,0,0,1,-565.703,106.487)">
                <g transform="matrix(0,-1.06591,-1.06591,0,413.177,235.027)">
                    <path d="M-16.876,-16.878C-26.197,-16.878 -33.754,-9.321 -33.754,-0C-33.754,9.32 -26.197,16.876 -16.876,16.876C-7.555,16.876 -0,9.32 -0,-0C-0,-9.321 -7.555,-16.878 -16.876,-16.878" style="fill:rgb(17,17,17);fill-opacity:0;fill-rule:nonzero;"/>
                </g>
                <g transform="matrix(0,-1,-1,0,413.177,236.139)">
                    <path d="M-16.876,-16.878C-26.197,-16.878 -33.754,-9.321 -33.754,-0C-33.754,9.32 -26.197,16.876 -16.876,16.876C-7.555,16.876 -0,9.32 -0,-0C-0,-9.321 -7.555,-16.878 -16.876,-16.878" style="fill:rgb(17,17,17);fill-rule:nonzero;"/>
                </g>
                <g transform="matrix(-1,0,0,1,405.6,251.426)">
                    <path d="M0,3.181L-0.245,4.351L-0.724,3.256C-1.43,1.64 -2.779,0.384 -4.426,-0.194C-6.552,-0.939 -8.931,-0.489 -10.641,0.975C-11.222,1.474 -11.289,2.354 -10.789,2.936C-10.29,3.518 -9.41,3.584 -8.829,3.086C-7.875,2.267 -6.543,2.013 -5.346,2.431C-3.499,3.078 -2.52,5.105 -3.163,6.951C-3.367,7.531 -3.717,8.049 -4.175,8.449L-4.393,8.641C-5.406,9.1 -6.479,9.333 -7.577,9.333C-11.847,9.333 -15.319,5.86 -15.319,1.591C-15.319,-2.678 -11.847,-6.152 -7.577,-6.152C-3.308,-6.152 0.166,-2.678 0.166,1.591C0.166,2.118 0.11,2.654 0,3.181M-7.577,-8.933C-13.38,-8.933 -18.101,-4.212 -18.101,1.591C-18.101,7.393 -13.38,12.114 -7.577,12.114C-1.774,12.114 2.946,7.393 2.946,1.591C2.946,-4.212 -1.774,-8.933 -7.577,-8.933" style="fill:rgb(224,108,117);fill-rule:nonzero;"/>
                </g>
            </g>
        </g>
    </g>
</svg>
