<?xml version="1.0" encoding="UTF-8" standalone="no"?><!DOCTYPE svg PUBLIC "-//W3C//DTD SVG 1.1//EN" "http://www.w3.org/Graphics/SVG/1.1/DTD/svg11.dtd"><svg width="100%" height="100%" viewBox="0 0 274 274" version="1.1" xmlns="http://www.w3.org/2000/svg" xmlns:xlink="http://www.w3.org/1999/xlink" xml:space="preserve" xmlns:serif="http://www.serif.com/" style="fill-rule:evenodd;clip-rule:evenodd;stroke-linejoin:round;stroke-miterlimit:2;"><path d="M157.5,89.129c0,-3.862 3.129,-6.991 6.992,-6.991c3.858,0 6.987,3.129 6.987,6.991c0,3.859 -3.129,6.992 -6.987,6.992c-3.863,0 -6.992,-3.133 -6.992,-6.992m-48.188,6.992c-3.862,0 -6.991,-3.133 -6.991,-6.992c0,-3.862 3.129,-6.991 6.991,-6.991c3.859,0 6.988,3.129 6.988,6.991c0,3.859 -3.129,6.992 -6.988,6.992m161.159,45.646c-3.1,-1.704 -6.996,-0.571 -8.7,2.533c-11.529,20.988 -29.213,30.021 -55.45,28.2c-18.559,-1.504 -27.284,-12.496 -27.284,-12.496c14.467,4.463 28.921,3.242 28.921,3.242c2.175,0 4.334,-0.146 6.475,-0.429c14.746,-1.984 26.688,-10.742 32.763,-24.034c5.904,-12.92 5.929,-25.345 0.062,-34.983c-5.066,-8.325 -14.121,-13.587 -24.221,-14.079c-8.166,-0.404 -13.262,2.662 -16.1,5.3c-6.5,6.037 -6.904,14.725 -6.929,15.696c-0.087,3.537 2.713,6.479 6.246,6.566c3.533,0.092 6.446,-2.679 6.563,-6.191c0.062,-1.2 0.687,-4.725 2.891,-6.729c1.525,-1.384 3.717,-1.98 6.709,-1.842c5.845,0.283 11.037,3.254 13.895,7.942c3.584,5.895 3.313,14.062 -0.775,22.995c-4.266,9.334 -12.366,15.25 -22.812,16.655c-15.825,2.133 -33.554,-6.496 -47.4,-23.067c-0.317,-0.379 -0.671,-0.7 -1.046,-0.983l0,-0.234c0,0 -5.533,-13.691 6.117,-22.429c0,0 13.104,1.167 13.979,-12.525c0.875,-13.687 -10.483,-9.317 -10.483,-20.096c0,-10.779 5.241,0 5.241,-30.875c0,-28.837 -20.679,-39.904 -42.233,-39.904c-21.554,0 -42.233,11.067 -42.233,39.904c0,30.875 5.241,20.1 5.241,30.875c0,10.779 -11.362,6.409 -10.487,20.096c0.875,13.692 13.983,12.525 13.983,12.525c11.646,8.738 6.113,22.429 6.113,22.429l0,0.234c-0.371,0.287 -0.725,0.604 -1.046,0.983c-13.846,16.571 -31.575,25.2 -47.4,23.067c-10.442,-1.405 -18.546,-7.321 -22.813,-16.655c-4.087,-8.933 -4.358,-17.1 -0.775,-22.995c2.859,-4.688 8.05,-7.655 13.9,-7.942c2.988,-0.138 5.179,0.458 6.709,1.842c2.2,2.004 2.825,5.529 2.887,6.729c0.117,3.512 3.033,6.283 6.563,6.191c3.537,-0.087 6.337,-3.029 6.245,-6.566c-0.025,-0.971 -0.42,-9.659 -6.925,-15.696c-2.841,-2.638 -7.933,-5.704 -16.104,-5.3c-10.1,0.492 -19.154,5.754 -24.221,14.079c-5.866,9.642 -5.841,22.067 0.063,34.983c6.075,13.292 18.017,22.05 32.762,24.034c2.142,0.283 4.3,0.429 6.475,0.429c0,0 14.459,1.221 28.921,-3.242c0,0 -8.721,10.996 -27.279,12.496c-26.237,1.821 -43.925,-7.212 -55.454,-28.2c-1.7,-3.104 -5.6,-4.237 -8.7,-2.533c-3.104,1.704 -4.238,5.6 -2.529,8.704c12.925,23.533 32.691,35.083 60.216,35.083c4.013,0 8.188,-0.246 12.525,-0.733c8.084,-0.908 14.955,-2.588 20.792,-4.713c-5.271,13.284 -15.358,32.475 -31.992,41.671c-12.4,6.85 -20.87,4.725 -24.65,0.438c-2.783,-3.146 -3.125,-7.359 -0.854,-10.479c2.113,-2.905 3.704,-3.013 4.225,-3.05c2.654,-0.167 6.075,2.412 7.284,3.666c2.425,2.579 6.475,2.704 9.058,0.284c2.579,-2.421 2.704,-6.48 0.283,-9.059c-0.796,-0.846 -8.083,-8.25 -17.404,-7.679c-3.712,0.229 -9.125,1.858 -13.808,8.3c-5.8,7.967 -5.138,18.867 1.608,26.504c4.175,4.725 10.888,8.338 19.604,8.338c6.046,0 13.054,-1.738 20.854,-6.046c10.546,-5.829 18.767,-14.675 25.075,-23.95c-0.65,4.225 -0.366,8.604 -0.37,13.175c-0.038,38.758 20.45,48.771 27.887,50.933c0.6,0.175 1.2,0.254 1.792,0.254c2.775,0 5.337,-1.82 6.15,-4.625c0.987,-3.395 -0.971,-6.95 -4.367,-7.937c-4.65,-1.35 -9.479,-5.292 -13.471,-16.421c-4.246,-11.846 -3.646,-25.075 1.996,-36.325c4.721,-9.421 12.3,-19.246 23.671,-20.525c11.367,1.279 18.95,11.104 23.667,20.525c5.637,11.25 6.237,24.479 1.995,36.325c-3.991,11.129 -8.82,15.071 -13.475,16.421c-3.395,0.987 -5.354,4.542 -4.362,7.937c0.812,2.805 3.371,4.625 6.15,4.625c0.592,0 1.192,-0.079 1.787,-0.254c7.442,-2.162 27.925,-12.175 27.892,-50.933c-0.004,-4.571 0.283,-8.95 -0.375,-13.175c6.313,9.275 14.538,18.121 25.079,23.95c7.8,4.308 14.813,6.046 20.854,6.046c8.717,0 15.43,-3.613 19.605,-8.338c6.745,-7.637 7.404,-18.537 1.612,-26.504c-4.683,-6.442 -10.096,-8.071 -13.812,-8.304c-9.321,-0.567 -16.609,6.833 -17.405,7.683c-2.425,2.579 -2.295,6.638 0.284,9.059c2.579,2.42 6.637,2.295 9.058,-0.284c1.213,-1.254 4.629,-3.833 7.288,-3.666c0.52,0.037 2.108,0.145 4.216,3.05c2.275,3.116 1.934,7.333 -0.85,10.479c-3.783,4.287 -12.246,6.412 -24.654,-0.438c-16.629,-9.196 -26.717,-28.387 -31.992,-41.671c5.846,2.125 12.713,3.805 20.8,4.713c4.338,0.487 8.513,0.733 12.521,0.733c27.521,0 47.292,-11.55 60.221,-35.087c1.704,-3.1 0.571,-6.996 -2.533,-8.7" style="fill:#050505;fill-opacity:0.25;fill-rule:nonzero;"/></svg>
