<?xml version="1.0" encoding="UTF-8" standalone="no"?><!DOCTYPE svg PUBLIC "-//W3C//DTD SVG 1.1//EN" "http://www.w3.org/Graphics/SVG/1.1/DTD/svg11.dtd"><svg width="100%" height="100%" viewBox="0 0 185 175" version="1.1" xmlns="http://www.w3.org/2000/svg" xmlns:xlink="http://www.w3.org/1999/xlink" xml:space="preserve" xmlns:serif="http://www.serif.com/" style="fill-rule:evenodd;clip-rule:evenodd;stroke-linejoin:round;stroke-miterlimit:2;"><g><g><path d="M146.411,116.607c13.907,-0.707 23.698,-6.929 30.405,-19.14c1.154,-2.096 3.787,-2.859 5.879,-1.709c2.096,1.15 2.862,3.784 1.712,5.88c-5.37,9.774 -12.487,16.487 -21.497,20.209c-5.5,0.713 -10.999,-1.05 -16.499,-5.24Z" style="fill:#f06372;"/><path d="M21.974,121.823c-8.982,-3.724 -16.08,-10.43 -21.438,-20.185c-1.154,-2.096 -0.383,-4.725 1.713,-5.88c2.092,-1.15 4.725,-0.387 5.875,1.713c6.713,12.219 16.515,18.441 30.441,19.137c-5.53,4.262 -11.061,5.984 -16.591,5.215Z" style="fill:#f06372;"/><path d="M44.39,116.593c0.394,-0.021 0.789,-0.045 1.188,-0.072c12.538,-1.017 18.429,-8.442 18.429,-8.442c-9.771,3.013 -19.533,2.188 -19.533,2.188c-1.471,-0 -2.929,-0.096 -4.375,-0.292c-9.963,-1.338 -18.025,-7.254 -22.129,-16.229c-3.992,-8.729 -4.009,-17.121 -0.042,-23.634c3.421,-5.62 9.538,-9.179 16.358,-9.508c5.521,-0.271 8.963,1.796 10.88,3.579c4.387,4.079 4.662,9.946 4.679,10.604c0.054,2.388 -1.834,4.375 -4.221,4.434c-2.383,0.062 -4.354,-1.809 -4.433,-4.179c-0.038,-0.813 -0.467,-3.196 -1.95,-4.546c-1.03,-0.938 -2.517,-1.342 -4.534,-1.246c-3.946,0.192 -7.458,2.196 -9.387,5.362c-2.421,3.984 -2.234,9.5 0.525,15.534c2.879,6.308 8.354,10.304 15.408,11.25c10.692,1.441 22.667,-4.388 32.021,-15.584c0.212,-0.254 0.45,-0.47 0.704,-0.662l0,-0.158c0,-0 3.738,-9.246 -4.133,-15.15c-0,-0 -8.854,0.787 -9.442,-8.459c-0.592,-9.246 7.079,-6.296 7.083,-13.575c0,-7.279 -3.545,0 -3.545,-20.854c-0,-19.479 13.97,-26.954 28.529,-26.954c14.558,-0 28.529,7.475 28.529,26.954c-0,20.854 -3.542,13.575 -3.542,20.854c0,7.279 7.675,4.329 7.084,13.575c-0.588,9.246 -9.442,8.459 -9.442,8.459c-7.871,5.904 -4.133,15.15 -4.133,15.15c0.004,0.054 -0,0.104 -0,0.158c0.254,0.192 0.491,0.408 0.708,0.662c9.35,11.196 21.325,17.025 32.012,15.584c7.059,-0.95 12.53,-4.942 15.413,-11.25c2.758,-6.034 2.942,-11.55 0.521,-15.534c-1.929,-3.166 -5.434,-5.17 -9.388,-5.362c-2.016,-0.096 -3.496,0.308 -4.525,1.246c-1.491,1.35 -1.912,3.733 -1.954,4.546c-0.079,2.37 -2.05,4.241 -4.437,4.179c-2.388,-0.059 -4.275,-2.046 -4.213,-4.434c0.017,-0.658 0.283,-6.525 4.679,-10.604c1.917,-1.783 5.359,-3.85 10.875,-3.579c6.821,0.329 12.934,3.888 16.359,9.508c3.962,6.513 3.945,14.905 -0.042,23.634c-4.104,8.975 -12.171,14.891 -22.133,16.229c-1.446,0.196 -2.905,0.292 -4.371,0.292c-0,-0 -9.767,0.825 -19.538,-2.188c0,0 5.892,7.425 18.429,8.442c0.412,0.028 0.82,0.053 1.224,0.073c-10.371,8.002 -20.742,7.073 -31.114,-2.457c-11.333,10.557 -22.667,10.414 -34,-0c-10.36,9.65 -20.72,10.36 -31.081,2.456Zm29.446,-51.668c-2.608,-0 -4.72,-2.117 -4.72,-4.721c-0,-2.608 2.112,-4.721 4.72,-4.721c2.605,0 4.721,2.113 4.721,4.721c0,2.604 -2.116,4.721 -4.721,4.721Zm32.55,-4.721c0,-2.608 2.113,-4.721 4.721,-4.721c2.609,0 4.725,2.113 4.725,4.721c0,2.604 -2.116,4.721 -4.725,4.721c-2.608,-0 -4.721,-2.117 -4.721,-4.721Z" style="fill:#f06372;"/></g><g><g><path d="M28.383,169.419c-2.593,-0 -5.166,-0.665 -7.44,-1.928l-0.163,-0.121c-0.777,-0.763 -1.37,-1.691 -1.718,-2.689c-1.279,-3.666 0.667,-7.694 4.34,-8.98c2.37,-0.828 5.028,-0.325 6.927,1.304c1.153,0.99 2.903,0.852 3.894,-0.302c0.993,-1.156 0.855,-2.905 -0.304,-3.896c-3.396,-2.912 -8.125,-3.8 -12.345,-2.323c-3.006,1.053 -5.483,3.2 -6.973,6.047l-1.078,2.058l-0.344,-2.296c-0.125,-0.846 -0.185,-1.565 -0.185,-2.263c0,-8.484 6.904,-15.389 15.389,-15.389c8.486,0 15.389,6.905 15.389,15.389c-0,8.484 -6.903,15.389 -15.389,15.389m-0,-36.305c-11.533,-0 -20.914,9.383 -20.914,20.916c-0,7.264 3.711,13.902 9.928,17.763c0.288,0.232 0.515,0.368 0.776,0.48c3.165,1.761 6.673,2.673 10.21,2.673c11.533,0 20.914,-9.383 20.914,-20.916c-0,-11.533 -9.381,-20.916 -20.914,-20.916" style="fill:#f06372;fill-rule:nonzero;"/><path d="M75.843,133.115c-11.531,-0 -20.912,9.383 -20.912,20.916c-0,11.533 9.381,20.914 20.912,20.914c6.65,0 12.755,-3.057 16.75,-8.384c0.912,-1.22 0.665,-2.954 -0.554,-3.869c-1.22,-0.911 -2.957,-0.661 -3.869,0.553c-2.939,3.923 -7.431,6.175 -12.327,6.175c-8.485,-0 -15.389,-6.905 -15.389,-15.389c-0,-8.487 6.904,-15.389 15.389,-15.389c4.146,0 8.035,1.625 10.95,4.573c1.064,1.08 2.821,1.095 3.907,0.024c1.085,-1.069 1.094,-2.823 0.025,-3.907c-3.963,-4.01 -9.248,-6.217 -14.882,-6.217" style="fill:#f06372;fill-rule:nonzero;"/><path d="M101.03,142.858l2.805,0l0.063,18.596c-0,7.435 6.05,13.483 13.483,13.483c7.436,-0 13.483,-6.048 13.483,-13.483c0,-4.794 -2.577,-9.266 -6.728,-11.671l-0.002,-0c-0.639,-0.371 -1.384,-0.467 -2.094,-0.282c-0.711,0.192 -1.312,0.648 -1.682,1.286c-0.368,0.638 -0.471,1.383 -0.279,2.097c0.19,0.712 0.645,1.31 1.283,1.679c2.453,1.423 3.977,4.061 3.977,6.891c-0,4.387 -3.571,7.955 -7.958,7.955c-4.387,0 -7.955,-3.568 -7.955,-7.955l-0.065,-18.596l13.501,0c1.526,0 2.762,-1.241 2.762,-2.765c0,-1.522 -1.236,-2.762 -2.762,-2.762l-13.521,-0l-0.04,-8.498c-0.005,-1.515 -1.246,-2.752 -2.761,-2.752c-1.537,0.009 -2.769,1.252 -2.767,2.776l0.04,8.474l-2.783,-0c-1.526,-0 -2.762,1.24 -2.762,2.762c-0,1.524 1.236,2.765 2.762,2.765" style="fill:#f06372;fill-rule:nonzero;"/><path d="M171.616,157.191l-0.486,2.325l-0.953,-2.176c-1.402,-3.211 -4.086,-5.708 -7.358,-6.855c-4.226,-1.482 -8.953,-0.589 -12.351,2.323c-1.156,0.991 -1.29,2.74 -0.295,3.896c0.993,1.156 2.738,1.288 3.897,0.299c1.894,-1.629 4.543,-2.133 6.92,-1.303c3.673,1.286 5.619,5.316 4.34,8.982c-0.406,1.156 -1.102,2.185 -2.013,2.977l-0.431,0.384c-2.012,0.91 -4.146,1.375 -6.331,1.375c-8.484,-0 -15.386,-6.903 -15.386,-15.389c-0,-8.485 6.902,-15.389 15.386,-15.389c8.487,0 15.389,6.904 15.389,15.389c0,1.049 -0.109,2.113 -0.328,3.162m-15.061,-24.076c-11.532,-0 -20.914,9.383 -20.914,20.914c0,11.532 9.382,20.916 20.914,20.916c11.535,0 20.917,-9.384 20.917,-20.916c-0,-11.531 -9.382,-20.914 -20.917,-20.914" style="fill:#f06372;fill-rule:nonzero;"/></g></g></g></svg>