<?xml version="1.0" encoding="UTF-8" standalone="no"?><!DOCTYPE svg PUBLIC "-//W3C//DTD SVG 1.1//EN" "http://www.w3.org/Graphics/SVG/1.1/DTD/svg11.dtd"><svg width="100%" height="100%" viewBox="0 0 318 286" version="1.1" xmlns="http://www.w3.org/2000/svg" xmlns:xlink="http://www.w3.org/1999/xlink" xml:space="preserve" xmlns:serif="http://www.serif.com/" style="fill-rule:evenodd;clip-rule:evenodd;stroke-linejoin:round;stroke-miterlimit:2;"><g><path d="M172.627,60.204c0,-2.608 2.113,-4.721 4.721,-4.721c2.608,0 4.725,2.113 4.725,4.721c0,2.604 -2.117,4.721 -4.725,4.721c-2.608,0 -4.721,-2.117 -4.721,-4.721m-32.55,4.721c-2.608,0 -4.721,-2.117 -4.721,-4.721c0,-2.608 2.113,-4.721 4.721,-4.721c2.604,0 4.721,2.113 4.721,4.721c0,2.604 -2.117,4.721 -4.721,4.721m108.859,30.833c-2.092,-1.15 -4.725,-0.387 -5.88,1.709c-7.787,14.179 -19.733,20.283 -37.454,19.054c-12.537,-1.017 -18.429,-8.442 -18.429,-8.442c9.771,3.013 19.538,2.188 19.538,2.188c1.466,0 2.925,-0.096 4.37,-0.292c9.963,-1.338 18.03,-7.254 22.134,-16.229c3.987,-8.729 4.004,-17.121 0.041,-23.634c-3.425,-5.62 -9.537,-9.179 -16.358,-9.508c-5.517,-0.271 -8.958,1.796 -10.875,3.579c-4.396,4.079 -4.662,9.946 -4.679,10.604c-0.063,2.388 1.825,4.375 4.212,4.434c2.388,0.062 4.359,-1.809 4.438,-4.179c0.042,-0.813 0.462,-3.196 1.954,-4.546c1.029,-0.938 2.508,-1.342 4.525,-1.246c3.954,0.192 7.458,2.196 9.388,5.362c2.42,3.984 2.237,9.5 -0.521,15.534c-2.884,6.308 -8.354,10.3 -15.413,11.25c-10.687,1.441 -22.662,-4.388 -32.012,-15.584c-0.217,-0.254 -0.454,-0.47 -0.709,-0.662c0,-0.054 0.005,-0.104 0,-0.158c0,0 -3.737,-9.246 4.134,-15.15c0,0 8.854,0.787 9.441,-8.459c0.592,-9.246 -7.083,-6.296 -7.083,-13.575c0,-7.279 3.542,0 3.542,-20.854c0,-19.479 -13.971,-26.954 -28.529,-26.954c-14.559,0 -28.53,7.475 -28.53,26.954c0,20.854 3.546,13.575 3.546,20.854c-0.004,7.279 -7.675,4.329 -7.083,13.575c0.587,9.246 9.442,8.459 9.442,8.459c7.87,5.904 4.133,15.15 4.133,15.15l0,0.158c-0.254,0.192 -0.492,0.408 -0.704,0.662c-9.354,11.196 -21.329,17.025 -32.021,15.584c-7.054,-0.946 -12.529,-4.942 -15.408,-11.25c-2.759,-6.034 -2.946,-11.55 -0.525,-15.534c1.929,-3.166 5.441,-5.17 9.387,-5.362c2.017,-0.096 3.504,0.308 4.533,1.246c1.484,1.35 1.913,3.733 1.95,4.546c0.08,2.37 2.05,4.241 4.434,4.179c2.387,-0.059 4.275,-2.046 4.221,-4.434c-0.017,-0.658 -0.292,-6.525 -4.68,-10.604c-1.916,-1.783 -5.358,-3.85 -10.879,-3.579c-6.821,0.329 -12.937,3.888 -16.358,9.508c-3.967,6.513 -3.95,14.905 0.042,23.634c4.104,8.975 12.166,14.891 22.129,16.229c1.446,0.196 2.904,0.292 4.375,0.292c0,0 9.762,0.825 19.533,-2.188c0,0 -5.892,7.425 -18.429,8.442c-17.721,1.229 -29.667,-4.875 -37.454,-19.05c-1.15,-2.1 -3.784,-2.863 -5.875,-1.713c-2.096,1.154 -2.867,3.784 -1.713,5.879c8.729,15.896 22.084,23.696 40.675,23.696c2.709,0 5.529,-0.162 8.463,-0.491c5.458,-0.617 10.096,-1.75 14.046,-3.184c-3.563,8.971 -10.375,21.938 -21.613,28.146c-8.375,4.629 -14.096,3.192 -16.65,0.296c-1.879,-2.125 -2.112,-4.971 -0.579,-7.079c1.425,-1.959 2.504,-2.034 2.854,-2.059c1.796,-0.116 4.1,1.625 4.925,2.475c1.633,1.742 4.371,1.83 6.113,0.192c1.741,-1.637 1.829,-4.375 0.191,-6.117c-0.537,-0.575 -5.454,-5.575 -11.754,-5.191c-2.504,0.158 -6.162,1.258 -9.325,5.608c-3.921,5.383 -3.471,12.742 1.088,17.9c2.816,3.196 7.35,5.638 13.237,5.638c4.088,0 8.817,-1.175 14.088,-4.088c7.125,-3.937 12.675,-9.912 16.941,-16.179c-0.446,2.858 -0.25,5.817 -0.254,8.904c-0.025,26.175 13.813,32.942 18.838,34.404c0.404,0.113 0.812,0.171 1.212,0.171c1.875,0 3.604,-1.229 4.154,-3.125c0.667,-2.296 -0.658,-4.696 -2.95,-5.362c-3.141,-0.913 -6.408,-3.575 -9.1,-11.092c-2.866,-8 -2.462,-16.938 1.346,-24.533c3.188,-6.367 8.308,-13.005 15.988,-13.867c7.679,0.862 12.8,7.5 15.987,13.867c3.808,7.595 4.217,16.533 1.346,24.533c-2.692,7.517 -5.954,10.179 -9.096,11.092c-2.296,0.666 -3.617,3.066 -2.95,5.362c0.55,1.896 2.279,3.125 4.154,3.125c0.396,0 0.804,-0.058 1.209,-0.171c5.025,-1.462 18.862,-8.229 18.837,-34.404c-0.004,-3.092 0.192,-6.046 -0.25,-8.904c4.263,6.267 9.817,12.242 16.938,16.179c5.266,2.913 10.004,4.088 14.087,4.088c5.888,0 10.421,-2.442 13.242,-5.638c4.558,-5.158 5.004,-12.517 1.087,-17.9c-3.162,-4.35 -6.816,-5.45 -9.329,-5.608c-6.296,-0.384 -11.217,4.616 -11.754,5.187c-1.638,1.742 -1.55,4.484 0.192,6.121c1.741,1.638 4.479,1.55 6.12,-0.192c0.817,-0.85 3.125,-2.591 4.917,-2.475c0.35,0.025 1.429,0.1 2.854,2.059c1.534,2.108 1.3,4.954 -0.579,7.079c-2.554,2.896 -8.271,4.333 -16.65,-0.296c-11.233,-6.208 -18.05,-19.175 -21.608,-28.146c3.946,1.434 8.583,2.567 14.046,3.184c2.933,0.329 5.754,0.491 8.458,0.491c18.592,0 31.946,-7.8 40.679,-23.696c1.15,-2.095 0.383,-4.729 -1.712,-5.879" style="fill:#e28e68;fill-rule:nonzero;"/><g><path d="M127.665,207.132c-21.529,0 -39.046,17.517 -39.046,39.054c0,21.534 17.517,39.05 39.046,39.05c12.417,0 23.817,-5.708 31.275,-15.654c1.704,-2.279 1.242,-5.517 -1.033,-7.225c-2.279,-1.7 -5.517,-1.233 -7.225,1.033c-5.488,7.325 -13.875,11.53 -23.017,11.53c-15.842,0 -28.733,-12.892 -28.733,-28.734c0,-15.846 12.891,-28.733 28.733,-28.733c7.742,0 15.004,3.033 20.446,8.537c1.987,2.017 5.267,2.046 7.296,0.046c2.025,-1.996 2.041,-5.271 0.046,-7.296c-7.4,-7.487 -17.267,-11.608 -27.788,-11.608" style="fill:#e28e68;fill-rule:nonzero;"/><path d="M174.695,225.325l5.237,0l0.117,34.72c0,13.884 11.296,25.175 25.175,25.175c13.883,0 25.175,-11.291 25.175,-25.175c0,-8.95 -4.813,-17.3 -12.563,-21.791l-0.004,0c-1.192,-0.692 -2.583,-0.871 -3.908,-0.525c-1.329,0.358 -2.45,1.208 -3.142,2.4c-0.687,1.191 -0.879,2.583 -0.521,3.916c0.354,1.33 1.204,2.446 2.396,3.134c4.579,2.658 7.425,7.583 7.425,12.866c0,8.192 -6.667,14.855 -14.858,14.855c-8.192,0 -14.854,-6.663 -14.854,-14.855l-0.121,-34.72l25.208,0c2.85,0 5.163,-2.317 5.163,-5.163c0,-2.842 -2.313,-5.158 -5.163,-5.158l-25.246,0l-0.075,-15.867c-0.008,-2.829 -2.325,-5.137 -5.154,-5.137c-2.871,0.016 -5.171,2.337 -5.162,5.183l0.07,15.821l-5.195,0c-2.85,0 -5.159,2.316 -5.159,5.158c0,2.846 2.309,5.163 5.159,5.163" style="fill:#e28e68;fill-rule:nonzero;"/><path d="M39.054,274.918c-4.846,0 -9.646,-1.242 -13.896,-3.6l-0.304,-0.225c-1.45,-1.425 -2.554,-3.163 -3.208,-5.021c-2.388,-6.846 1.246,-14.367 8.104,-16.767c4.425,-1.546 9.388,-0.608 12.933,2.433c2.155,1.85 5.421,1.592 7.271,-0.562c1.854,-2.158 1.596,-5.425 -0.566,-7.275c-6.342,-5.438 -15.171,-7.1 -23.05,-4.338c-5.613,1.967 -10.238,5.975 -13.021,11.292l-2.013,3.842l-0.641,-4.288c-0.234,-1.579 -0.342,-2.921 -0.342,-4.225c0,-15.841 12.887,-28.733 28.733,-28.733c15.842,0 28.729,12.892 28.729,28.733c0,15.842 -12.887,28.734 -28.729,28.734m0,-67.788c-21.537,0 -39.054,17.521 -39.054,39.054c0,13.563 6.929,25.959 18.538,33.167c0.537,0.433 0.962,0.687 1.45,0.896c5.912,3.287 12.458,4.991 19.066,4.991c21.529,0 39.046,-17.52 39.046,-39.054c0,-21.533 -17.517,-39.054 -39.046,-39.054" style="fill:#e28e68;fill-rule:nonzero;"/><path d="M306.49,252.087l-0.908,4.341l-1.779,-4.062c-2.617,-5.996 -7.63,-10.659 -13.738,-12.8c-7.892,-2.767 -16.717,-1.1 -23.062,4.337c-2.159,1.85 -2.409,5.117 -0.55,7.275c1.854,2.159 5.112,2.404 7.275,0.559c3.537,-3.042 8.483,-3.984 12.92,-2.434c6.859,2.4 10.492,9.921 8.105,16.771c-0.759,2.158 -2.059,4.079 -3.759,5.558l-0.804,0.717c-3.758,1.7 -7.742,2.567 -11.817,2.567c-15.845,0 -28.733,-12.888 -28.733,-28.734c0,-15.841 12.888,-28.733 28.733,-28.733c15.842,0 28.73,12.892 28.73,28.733c0,1.959 -0.205,3.946 -0.613,5.905m-28.117,-44.955c-21.537,0 -39.054,17.517 -39.054,39.05c0,21.534 17.517,39.055 39.054,39.055c21.534,0 39.05,-17.521 39.05,-39.055c0,-21.533 -17.516,-39.05 -39.05,-39.05" style="fill:#e28e68;fill-rule:nonzero;"/></g></g></svg>
